<svg width="16" height="16" viewBox="0 0 16 16" fill="none" xmlns="http://www.w3.org/2000/svg">
<rect width="16" height="16" rx="8" fill="#4F4F4F"/>
<path d="M8 4.8C6.232 4.8 4.8 6.26918 4.8 8.08125C4.8 9.53129 5.7168 10.7609 6.988 11.1943C7.148 11.2252 7.20667 11.1238 7.20667 11.0366C7.20667 10.9586 7.204 10.7522 7.20267 10.4787C6.31254 10.6767 6.1248 10.0385 6.1248 10.0385C5.9792 9.6598 5.7688 9.55863 5.7688 9.55863C5.47894 9.35519 5.7912 9.3593 5.7912 9.3593C6.11254 9.38227 6.28134 9.69726 6.28134 9.69726C6.56667 10.199 7.0304 10.0541 7.21334 9.97016C7.24214 9.75797 7.32454 9.61332 7.416 9.53129C6.70534 9.44926 5.9584 9.16707 5.9584 7.90981C5.9584 7.5516 6.0824 7.25902 6.28774 7.02934C6.25174 6.94649 6.14374 6.61289 6.31574 6.1609C6.31574 6.1609 6.58374 6.07285 7.19574 6.49723C7.45174 6.42422 7.72374 6.38813 7.99574 6.38649C8.26774 6.38813 8.53974 6.42422 8.79574 6.49723C9.40374 6.07285 9.67174 6.1609 9.67174 6.1609C9.84374 6.61289 9.73574 6.94649 9.70374 7.02934C9.90774 7.25902 10.0317 7.5516 10.0317 7.90981C10.0317 9.17035 9.28374 9.44789 8.57174 9.52855C8.68374 9.62699 8.78774 9.82824 8.78774 10.1356C8.78774 10.5747 8.78374 10.9275 8.78374 11.0341C8.78374 11.1202 8.83974 11.2228 9.00374 11.19C10.284 10.7596 11.2 9.5291 11.2 8.08125C11.2 6.26918 9.7672 4.8 8 4.8Z" fill="white"/>
</svg>
