<svg width="16" height="16" viewBox="0 0 16 16" fill="none" xmlns="http://www.w3.org/2000/svg">
<rect width="16" height="16" rx="8" fill="#4F4F4F"/>
<path d="M6.6747 4.82241C6.33422 4.83846 6.10171 4.89281 5.89843 4.97265C5.68808 5.05465 5.50976 5.16465 5.33235 5.3427C5.15496 5.52075 5.04568 5.69918 4.96429 5.9099C4.88552 6.11358 4.83213 6.3463 4.81709 6.68696C4.80205 7.02763 4.79872 7.13715 4.8004 8.00616C4.80205 8.87512 4.80589 8.98405 4.8224 9.32543C4.83866 9.66583 4.8928 9.89829 4.97267 10.1016C5.0548 10.312 5.16467 10.4902 5.3428 10.6677C5.52091 10.8452 5.6992 10.9542 5.9104 11.0357C6.11392 11.1144 6.3467 11.168 6.68731 11.1829C7.02793 11.1978 7.13756 11.2013 8.00631 11.1996C8.87506 11.198 8.98444 11.1941 9.32573 11.1779C9.66706 11.1617 9.89826 11.1072 10.1017 11.0277C10.3121 10.9454 10.4904 10.8357 10.6678 10.6575C10.8451 10.4794 10.9543 10.3008 11.0356 10.09C11.1145 9.88645 11.1681 9.6537 11.1828 9.31333C11.1978 8.97176 11.2013 8.86272 11.1996 7.99387C11.1979 7.12499 11.194 7.01605 11.1778 6.6748C11.1617 6.33355 11.1074 6.10182 11.0276 5.89835C10.9454 5.68798 10.8356 5.50987 10.6576 5.33227C10.4795 5.15467 10.3008 5.04555 10.0901 4.96441C9.88642 4.88561 9.65381 4.83193 9.31319 4.81721C8.97258 4.80249 8.86295 4.79867 7.99388 4.80038C7.12481 4.80203 7.01601 4.80577 6.6747 4.82241ZM6.71209 10.6072C6.40009 10.5936 6.23067 10.5418 6.11776 10.4984C5.96827 10.4408 5.86176 10.3712 5.74926 10.2598C5.63672 10.1483 5.56763 10.0415 5.50925 9.89229C5.46541 9.77938 5.41261 9.61015 5.39803 9.29815C5.38216 8.96096 5.37883 8.8597 5.37696 8.00536C5.37509 7.15104 5.37837 7.04989 5.39315 6.71256C5.40648 6.40083 5.45864 6.23123 5.50195 6.11838C5.55955 5.9687 5.62894 5.86238 5.74062 5.74995C5.8523 5.6375 5.95886 5.56825 6.10816 5.50987C6.22097 5.46585 6.39017 5.4135 6.70203 5.39865C7.0395 5.38265 7.14062 5.37945 7.99484 5.37758C8.84906 5.37571 8.95044 5.37891 9.28805 5.39379C9.59978 5.40734 9.76946 5.45899 9.88218 5.50259C10.0317 5.56019 10.1382 5.62937 10.2506 5.74126C10.3631 5.8531 10.4324 5.95928 10.4907 6.10891C10.5348 6.22136 10.5872 6.39051 10.6019 6.70259C10.618 7.04005 10.6216 7.14125 10.6231 7.99539C10.6247 8.84952 10.6217 8.95096 10.6069 9.28818C10.5933 9.60018 10.5415 9.76965 10.4981 9.88269C10.4405 10.0321 10.3711 10.1387 10.2593 10.2511C10.1476 10.3635 10.0411 10.4327 9.89176 10.4911C9.77912 10.535 9.6097 10.5875 9.2981 10.6024C8.9606 10.6182 8.85948 10.6216 8.00495 10.6234C7.15041 10.6253 7.04956 10.6218 6.71209 10.6072ZM9.32082 6.28971C9.32095 6.36566 9.3436 6.43988 9.3859 6.50296C9.42821 6.56604 9.48827 6.61516 9.5585 6.6441C9.62872 6.67304 9.70595 6.68051 9.78042 6.66555C9.85489 6.6506 9.92325 6.6139 9.97686 6.56009C10.0305 6.50628 10.0669 6.43778 10.0816 6.36326C10.0963 6.28873 10.0885 6.21153 10.0593 6.14142C10.0301 6.0713 9.98075 6.01142 9.91751 5.96935C9.85427 5.92728 9.77998 5.90491 9.70402 5.90507C9.60221 5.90528 9.50464 5.94592 9.43278 6.01805C9.36092 6.09018 9.32065 6.18789 9.32082 6.28971ZM6.35694 8.0032C6.35873 8.91072 7.09577 9.64471 8.00308 9.64301C8.91044 9.64127 9.64495 8.90432 9.64325 7.9968C9.64151 7.08928 8.90431 6.35507 7.99684 6.35686C7.08937 6.35864 6.35523 7.09579 6.35694 8.0032ZM6.93334 8.00205C6.93293 7.79109 6.99508 7.58474 7.11194 7.40909C7.2288 7.23345 7.39512 7.09641 7.58986 7.01529C7.78461 6.93417 7.99904 6.91262 8.20603 6.95337C8.41303 6.99412 8.60329 7.09533 8.75276 7.2442C8.90223 7.39308 9.0042 7.58294 9.04577 7.78977C9.08734 7.9966 9.06664 8.21111 8.9863 8.40618C8.90596 8.60124 8.76957 8.7681 8.59439 8.88566C8.41922 9.00322 8.21311 9.06619 8.00215 9.06661C7.86206 9.0669 7.72329 9.0396 7.59376 8.98626C7.46423 8.93291 7.34648 8.85458 7.24723 8.75572C7.14798 8.65686 7.06917 8.53942 7.01532 8.41011C6.96146 8.28079 6.9336 8.14213 6.93334 8.00205Z" fill="white"/>
</svg>
