<svg width="16" height="16" viewBox="0 0 16 16" fill="none" xmlns="http://www.w3.org/2000/svg">
<rect width="16" height="16" rx="8" fill="#4F4F4F"/>
<path fill-rule="evenodd" clip-rule="evenodd" d="M5.24989 5.24989C4.8 5.69977 4.8 6.42385 4.8 7.872V8.128C4.8 9.57616 4.8 10.3002 5.24989 10.7501C5.69977 11.2 6.42385 11.2 7.872 11.2H8.128C9.57616 11.2 10.3002 11.2 10.7501 10.7501C11.2 10.3002 11.2 9.57616 11.2 8.128V7.872C11.2 6.42385 11.2 5.69977 10.7501 5.24989C10.3002 4.8 9.57616 4.8 8.128 4.8H7.872C6.42385 4.8 5.69977 4.8 5.24989 5.24989ZM5.88002 6.74668C5.91468 8.41068 6.74667 9.41068 8.20534 9.41068H8.28802V8.45868C8.82402 8.51201 9.22933 8.90402 9.39199 9.41068H10.1493C9.94135 8.65335 9.39465 8.23468 9.05332 8.07468C9.39465 7.87735 9.87466 7.39735 9.98932 6.74668H9.3013C9.15197 7.27468 8.70935 7.75468 8.28802 7.80001V6.74668H7.6V8.59201C7.17333 8.48535 6.63468 7.96802 6.61068 6.74668H5.88002Z" fill="white"/>
</svg>
